<svg width="13" height="13" viewBox="0 0 13 13" fill="none" xmlns="http://www.w3.org/2000/svg">
<path d="M11.8182 8.86364C11.8182 8.53729 11.5536 8.27273 11.2273 8.27273H1.77273C1.44638 8.27273 1.18182 8.53729 1.18182 8.86364V11.2273C1.18182 11.5536 1.44638 11.8182 1.77273 11.8182H11.2273C11.5536 11.8182 11.8182 11.5536 11.8182 11.2273V8.86364ZM2.96032 9.45455C3.28667 9.45455 3.55122 9.7191 3.55122 10.0455C3.55122 10.3718 3.28667 10.6364 2.96032 10.6364H2.95455C2.6282 10.6364 2.36364 10.3718 2.36364 10.0455C2.36364 9.7191 2.6282 9.45455 2.95455 9.45455H2.96032ZM11.8182 1.77273C11.8182 1.44638 11.5536 1.18182 11.2273 1.18182H1.77273C1.44638 1.18182 1.18182 1.44638 1.18182 1.77273V4.13636C1.18182 4.46271 1.44638 4.72727 1.77273 4.72727H11.2273C11.5536 4.72727 11.8182 4.46271 11.8182 4.13636V1.77273ZM2.96032 2.36364C3.28667 2.36364 3.55122 2.6282 3.55122 2.95455C3.55122 3.2809 3.28667 3.54545 2.96032 3.54545H2.95455C2.6282 3.54545 2.36364 3.2809 2.36364 2.95455C2.36364 2.6282 2.6282 2.36364 2.95455 2.36364H2.96032ZM13 11.2273C13 12.2063 12.2063 13 11.2273 13H1.77273C0.793677 13 0 12.2063 0 11.2273V8.86364C0 7.88459 0.793677 7.09091 1.77273 7.09091H11.2273C12.2063 7.09091 13 7.88459 13 8.86364V11.2273ZM13 4.13636C13 5.11541 12.2063 5.90909 11.2273 5.90909H1.77273C0.793677 5.90909 0 5.11541 0 4.13636V1.77273C0 0.793677 0.793677 0 1.77273 0H11.2273C12.2063 0 13 0.793677 13 1.77273V4.13636Z" fill="#1E1E1E"/>
</svg>
