<svg width="47" height="47" viewBox="0 0 47 47" fill="none" xmlns="http://www.w3.org/2000/svg">
<mask id="path-1-outside-1_273_4631" maskUnits="userSpaceOnUse" x="-17.2197" y="-16.2426" width="79.9031" height="79.9031" fill="black">
<rect fill="white" x="-17.2197" y="-16.2426" width="79.9031" height="79.9031"/>
<path d="M44.3148 41.4475L40.8389 38.5863C38.9493 37.031 37.341 35.1625 36.0836 33.0631C34.3462 30.1624 31.9455 27.7147 29.0798 25.9212L27.6802 25.1063C27.2007 24.7729 26.8663 24.2533 26.8188 23.6672C26.7883 23.2892 26.8789 22.9514 27.0901 22.654C27.8189 21.6269 31.7858 17.3576 32.4761 16.7865C33.3651 16.0517 34.3557 15.4405 35.2747 14.7407C35.4054 14.6411 35.5365 14.542 35.6656 14.4409C35.6702 14.4364 35.6767 14.4329 35.6807 14.4289C35.9755 14.1961 36.2538 13.9488 36.475 13.6555C37.5527 12.4076 37.5312 11.3529 37.5312 11.3529C37.5312 11.3529 37.5322 11.3519 37.5327 11.3514C37.4181 11.0706 37.0056 10.1966 36.1672 9.78669C36.9085 9.77217 37.745 10.05 38.1244 10.4214C38.5804 9.7061 38.8752 9.24208 39.3337 8.46221C39.4429 8.277 39.5009 7.93462 39.2922 7.74291C39.2922 7.74291 39.2912 7.74291 39.2902 7.74291C39.2902 7.74291 39.2902 7.74191 39.2902 7.74091C39.2862 7.7369 39.2812 7.7339 39.2772 7.72989C39.2732 7.72589 39.2707 7.72139 39.2662 7.71688C39.2662 7.71688 39.2652 7.71688 39.2642 7.71688C39.2642 7.71688 39.2642 7.71588 39.2642 7.71488C39.2556 7.70637 39.2461 7.69986 39.2371 7.69185C39.2316 7.68635 39.2271 7.67984 39.2221 7.67383C39.2161 7.66883 39.2096 7.66432 39.2041 7.65882C39.1956 7.65031 39.1901 7.63979 39.1811 7.63179C39.1811 7.63179 39.1796 7.63129 39.1791 7.63179C39.1791 7.63179 39.1791 7.63078 39.1791 7.62978C39.1751 7.62578 39.1701 7.62278 39.166 7.61877C39.162 7.61477 39.159 7.60976 39.155 7.60576C39.155 7.60576 39.1535 7.60526 39.153 7.60576C39.153 7.60576 39.153 7.60476 39.153 7.60376C38.9613 7.39502 38.6189 7.45309 38.4337 7.56221C37.4196 8.15887 36.433 8.80109 35.5435 9.36422C35.5435 9.36422 34.4893 9.34219 33.2409 10.4204C32.9471 10.6421 32.6998 10.9205 32.4676 11.2148C32.4631 11.2193 32.4591 11.2253 32.4556 11.2298C32.354 11.3584 32.2548 11.4896 32.1557 11.6207C31.4555 12.5403 30.8448 13.5304 30.11 14.4194C29.5393 15.1101 25.2696 19.0765 24.2424 19.8054C23.9451 20.0166 23.6077 20.1077 23.2293 20.0767C22.6436 20.0296 22.1236 19.6947 21.7902 19.2152L20.9753 17.8156C19.1818 14.9489 16.734 12.5493 13.8333 10.8118C11.734 9.55443 9.8659 7.94564 8.31016 6.05653L5.44897 2.58066C5.30782 2.40947 5.03751 2.4375 4.9364 2.63472C4.61104 3.26842 3.98985 4.60641 3.51382 6.40592C3.5023 6.44847 3.51232 6.49352 3.54035 6.52756C4.13201 7.24235 5.50203 8.81761 7.13385 10.1501C7.24748 10.2427 7.15437 10.4259 7.01322 10.3869C5.60565 10.0034 4.23712 9.38774 3.21298 8.86316C3.12939 8.82061 3.02828 8.87367 3.01626 8.96677C2.85708 10.2422 2.81604 11.6428 2.98423 13.1194C2.98923 13.1675 3.01977 13.209 3.06432 13.2285C4.23212 13.7366 6.0997 14.4739 8.06038 14.9429C8.20254 14.977 8.19804 15.1817 8.05438 15.2092C6.52768 15.4966 4.92889 15.5606 3.62945 15.5436C3.53834 15.5426 3.47127 15.6287 3.4958 15.7163C3.75659 16.6378 4.10998 17.5749 4.576 18.5184C4.76872 18.9424 4.97845 19.3584 5.2032 19.7653C5.24174 19.8349 5.31633 19.8764 5.39591 19.8729C6.46861 19.8204 7.76505 19.7072 9.06851 19.477C9.29075 19.4379 9.40989 19.7303 9.22218 19.8559C8.33719 20.4476 7.39314 20.9571 6.51516 21.3766C6.39753 21.4332 6.35949 21.5833 6.43707 21.688C6.95866 22.3947 7.53229 23.0635 8.15549 23.6867C8.15549 23.6867 11.2239 26.8472 11.3075 27.095C13.098 25.2614 16.0413 23.2292 19.2914 21.4547C14.9385 24.9966 12.5118 27.6116 11.2905 29.0972L10.439 30.292C9.99654 30.9127 9.61262 31.572 9.29176 32.2632C8.21806 34.5733 6.44808 39.2455 6.44808 39.2455C6.31243 39.6114 6.42306 39.9723 6.65832 40.2076C6.66383 40.2131 6.66933 40.2186 6.67534 40.2236C6.68085 40.2291 6.68585 40.2351 6.69136 40.2406C6.92712 40.4764 7.28752 40.5865 7.65343 40.4509C7.65343 40.4509 12.3246 38.6809 14.6357 37.6072C15.327 37.2863 15.9867 36.9019 16.6069 36.4599L17.9229 35.5224C18.6196 35.0258 19.5737 35.1049 20.1789 35.7101L23.2123 38.7435C23.8355 39.3667 24.5042 39.9403 25.211 40.4619C25.3161 40.539 25.4658 40.5014 25.5223 40.3838C25.9423 39.5063 26.4519 38.5613 27.043 37.6768C27.1687 37.4891 27.4615 37.6087 27.422 37.8304C27.1912 39.1344 27.0791 40.4308 27.026 41.503C27.022 41.5821 27.0641 41.6572 27.1336 41.6957C27.5401 41.921 27.9561 42.1307 28.3805 42.3229C29.3241 42.789 30.2616 43.1429 31.1827 43.4032C31.2703 43.4277 31.3563 43.3606 31.3553 43.2695C31.3378 41.9696 31.4019 40.3708 31.6897 38.8446C31.7167 38.7004 31.9215 38.6959 31.956 38.8386C32.4245 40.7997 33.1619 42.6673 33.6704 43.8346C33.6899 43.8792 33.731 43.9092 33.7795 43.9147C35.2562 44.0829 36.6567 44.0419 37.9322 43.8827C38.0258 43.8712 38.0788 43.7701 38.0358 43.686C37.5112 42.6618 36.8955 41.2923 36.5121 39.8857C36.4735 39.7441 36.6563 39.6515 36.7489 39.7651C38.0813 41.3969 39.6566 42.7669 40.3714 43.3586C40.4054 43.3866 40.451 43.3961 40.493 43.3851C42.293 42.9096 43.631 42.2884 44.2642 41.9625C44.4615 41.8614 44.4895 41.5911 44.3183 41.45L44.3148 41.4475Z"/>
</mask>
<path d="M44.3148 41.4475L40.8389 38.5863C38.9493 37.031 37.341 35.1625 36.0836 33.0631C34.3462 30.1624 31.9455 27.7147 29.0798 25.9212L27.6802 25.1063C27.2007 24.7729 26.8663 24.2533 26.8188 23.6672C26.7883 23.2892 26.8789 22.9514 27.0901 22.654C27.8189 21.6269 31.7858 17.3576 32.4761 16.7865C33.3651 16.0517 34.3557 15.4405 35.2747 14.7407C35.4054 14.6411 35.5365 14.542 35.6656 14.4409C35.6702 14.4364 35.6767 14.4329 35.6807 14.4289C35.9755 14.1961 36.2538 13.9488 36.475 13.6555C37.5527 12.4076 37.5312 11.3529 37.5312 11.3529C37.5312 11.3529 37.5322 11.3519 37.5327 11.3514C37.4181 11.0706 37.0056 10.1966 36.1672 9.78669C36.9085 9.77217 37.745 10.05 38.1244 10.4214C38.5804 9.7061 38.8752 9.24208 39.3337 8.46221C39.4429 8.277 39.5009 7.93462 39.2922 7.74291C39.2922 7.74291 39.2912 7.74291 39.2902 7.74291C39.2902 7.74291 39.2902 7.74191 39.2902 7.74091C39.2862 7.7369 39.2812 7.7339 39.2772 7.72989C39.2732 7.72589 39.2707 7.72139 39.2662 7.71688C39.2662 7.71688 39.2652 7.71688 39.2642 7.71688C39.2642 7.71688 39.2642 7.71588 39.2642 7.71488C39.2556 7.70637 39.2461 7.69986 39.2371 7.69185C39.2316 7.68635 39.2271 7.67984 39.2221 7.67383C39.2161 7.66883 39.2096 7.66432 39.2041 7.65882C39.1956 7.65031 39.1901 7.63979 39.1811 7.63179C39.1811 7.63179 39.1796 7.63129 39.1791 7.63179C39.1791 7.63179 39.1791 7.63078 39.1791 7.62978C39.1751 7.62578 39.1701 7.62278 39.166 7.61877C39.162 7.61477 39.159 7.60976 39.155 7.60576C39.155 7.60576 39.1535 7.60526 39.153 7.60576C39.153 7.60576 39.153 7.60476 39.153 7.60376C38.9613 7.39502 38.6189 7.45309 38.4337 7.56221C37.4196 8.15887 36.433 8.80109 35.5435 9.36422C35.5435 9.36422 34.4893 9.34219 33.2409 10.4204C32.9471 10.6421 32.6998 10.9205 32.4676 11.2148C32.4631 11.2193 32.4591 11.2253 32.4556 11.2298C32.354 11.3584 32.2548 11.4896 32.1557 11.6207C31.4555 12.5403 30.8448 13.5304 30.11 14.4194C29.5393 15.1101 25.2696 19.0765 24.2424 19.8054C23.9451 20.0166 23.6077 20.1077 23.2293 20.0767C22.6436 20.0296 22.1236 19.6947 21.7902 19.2152L20.9753 17.8156C19.1818 14.9489 16.734 12.5493 13.8333 10.8118C11.734 9.55443 9.8659 7.94564 8.31016 6.05653L5.44897 2.58066C5.30782 2.40947 5.03751 2.4375 4.9364 2.63472C4.61104 3.26842 3.98985 4.60641 3.51382 6.40592C3.5023 6.44847 3.51232 6.49352 3.54035 6.52756C4.13201 7.24235 5.50203 8.81761 7.13385 10.1501C7.24748 10.2427 7.15437 10.4259 7.01322 10.3869C5.60565 10.0034 4.23712 9.38774 3.21298 8.86316C3.12939 8.82061 3.02828 8.87367 3.01626 8.96677C2.85708 10.2422 2.81604 11.6428 2.98423 13.1194C2.98923 13.1675 3.01977 13.209 3.06432 13.2285C4.23212 13.7366 6.0997 14.4739 8.06038 14.9429C8.20254 14.977 8.19804 15.1817 8.05438 15.2092C6.52768 15.4966 4.92889 15.5606 3.62945 15.5436C3.53834 15.5426 3.47127 15.6287 3.4958 15.7163C3.75659 16.6378 4.10998 17.5749 4.576 18.5184C4.76872 18.9424 4.97845 19.3584 5.2032 19.7653C5.24174 19.8349 5.31633 19.8764 5.39591 19.8729C6.46861 19.8204 7.76505 19.7072 9.06851 19.477C9.29075 19.4379 9.40989 19.7303 9.22218 19.8559C8.33719 20.4476 7.39314 20.9571 6.51516 21.3766C6.39753 21.4332 6.35949 21.5833 6.43707 21.688C6.95866 22.3947 7.53229 23.0635 8.15549 23.6867C8.15549 23.6867 11.2239 26.8472 11.3075 27.095C13.098 25.2614 16.0413 23.2292 19.2914 21.4547C14.9385 24.9966 12.5118 27.6116 11.2905 29.0972L10.439 30.292C9.99654 30.9127 9.61262 31.572 9.29176 32.2632C8.21806 34.5733 6.44808 39.2455 6.44808 39.2455C6.31243 39.6114 6.42306 39.9723 6.65832 40.2076C6.66383 40.2131 6.66933 40.2186 6.67534 40.2236C6.68085 40.2291 6.68585 40.2351 6.69136 40.2406C6.92712 40.4764 7.28752 40.5865 7.65343 40.4509C7.65343 40.4509 12.3246 38.6809 14.6357 37.6072C15.327 37.2863 15.9867 36.9019 16.6069 36.4599L17.9229 35.5224C18.6196 35.0258 19.5737 35.1049 20.1789 35.7101L23.2123 38.7435C23.8355 39.3667 24.5042 39.9403 25.211 40.4619C25.3161 40.539 25.4658 40.5014 25.5223 40.3838C25.9423 39.5063 26.4519 38.5613 27.043 37.6768C27.1687 37.4891 27.4615 37.6087 27.422 37.8304C27.1912 39.1344 27.0791 40.4308 27.026 41.503C27.022 41.5821 27.0641 41.6572 27.1336 41.6957C27.5401 41.921 27.9561 42.1307 28.3805 42.3229C29.3241 42.789 30.2616 43.1429 31.1827 43.4032C31.2703 43.4277 31.3563 43.3606 31.3553 43.2695C31.3378 41.9696 31.4019 40.3708 31.6897 38.8446C31.7167 38.7004 31.9215 38.6959 31.956 38.8386C32.4245 40.7997 33.1619 42.6673 33.6704 43.8346C33.6899 43.8792 33.731 43.9092 33.7795 43.9147C35.2562 44.0829 36.6567 44.0419 37.9322 43.8827C38.0258 43.8712 38.0788 43.7701 38.0358 43.686C37.5112 42.6618 36.8955 41.2923 36.5121 39.8857C36.4735 39.7441 36.6563 39.6515 36.7489 39.7651C38.0813 41.3969 39.6566 42.7669 40.3714 43.3586C40.4054 43.3866 40.451 43.3961 40.493 43.3851C42.293 42.9096 43.631 42.2884 44.2642 41.9625C44.4615 41.8614 44.4895 41.5911 44.3183 41.45L44.3148 41.4475Z" stroke="white" stroke-width="4" mask="url(#path-1-outside-1_273_4631)"/>
</svg>
