<svg width="12" height="12" viewBox="0 0 12 12" fill="none" xmlns="http://www.w3.org/2000/svg">
<path d="M6.60001 0L6.63312 0.000878904C8.03118 0.0780214 9.35172 0.668119 10.3418 1.6582C11.3319 2.64828 11.922 3.96882 11.9991 5.36688C11.9997 5.37788 12 5.38897 12 5.39999V5.69852L11.9979 5.86434C11.9757 6.69284 11.7704 7.50677 11.3965 8.24793L11.3968 8.24822C10.9237 9.19486 10.1963 9.99107 9.2962 10.5477C8.39634 11.1042 7.35921 11.3991 6.30119 11.3997L6.30148 11.4L6.3006 11.3997L6.30031 11.4L6.30001 11.3997C5.49968 11.4015 4.70947 11.2323 3.98117 10.9051L0.78987 11.9692C0.57427 12.0411 0.336508 11.9849 0.175809 11.8242C0.0151165 11.6635 -0.0410758 11.4257 0.0307897 11.2101L1.09456 8.01854C0.767322 7.28989 0.597951 6.49923 0.600027 5.69852C0.600668 4.64062 0.89585 3.60386 1.45227 2.70409C2.00893 1.80397 2.80508 1.07637 3.75178 0.603221C4.54192 0.204571 5.41499 -0.00176867 6.30001 0.000292968V0H6.60001ZM6.29855 1.2C5.60115 1.19818 4.91305 1.36107 4.29055 1.67548L4.2882 1.67666C3.54082 2.05019 2.91214 2.62453 2.47268 3.33515C2.03323 4.04576 1.80035 4.86476 1.80002 5.70028V5.70145C1.79821 6.39885 1.96109 7.08695 2.27551 7.70945C2.34763 7.85224 2.35979 8.01794 2.3092 8.16971L1.54866 10.451L3.83029 9.6908L3.88771 9.67468C4.02307 9.64408 4.16559 9.66137 4.29055 9.72449C4.91305 10.0389 5.60114 10.2018 6.29855 10.2H6.29972C7.13524 10.1997 7.95424 9.96676 8.66485 9.52732C9.37548 9.08785 9.94981 8.45919 10.3233 7.7118L10.3245 7.70945C10.6389 7.08695 10.8018 6.39885 10.8 5.70145V5.41962C10.7361 4.32153 10.2713 3.28495 9.49337 2.50693C8.71532 1.72888 7.67854 1.26388 6.58038 1.2H6.29855Z" fill="#1E1E1E"/>
</svg>
