<svg width="16" height="15" viewBox="0 0 16 15" fill="none" xmlns="http://www.w3.org/2000/svg">
<path d="M12 13.6364V15H4V13.6364H12ZM14.6667 10.9091V4.09091C14.6667 2.58468 13.4728 1.36364 12 1.36364H4C2.52724 1.36364 1.33333 2.58468 1.33333 4.09091V10.9091C1.33333 12.4153 2.52724 13.6364 4 13.6364V15C1.85986 15 0.112286 13.2811 0.00520833 11.1195L0 10.9091V4.09091C0 1.83156 1.79086 0 4 0H12C14.2091 0 16 1.83156 16 4.09091V10.9091C16 13.1684 14.2091 15 12 15V13.6364C13.4728 13.6364 14.6667 12.4153 14.6667 10.9091Z" fill="#050506"/>
<path d="M2 4.09091C2 2.96124 2.89543 2.04545 4 2.04545C5.10457 2.04545 6 2.96124 6 4.09091V10.9091C6 12.0388 5.10457 12.9545 4 12.9545C2.89543 12.9545 2 12.0388 2 10.9091V4.09091Z" fill="#050506"/>
</svg>
