<svg width="47" height="47" viewBox="0 0 47 47" fill="none" xmlns="http://www.w3.org/2000/svg">
<path d="M40.6898 6.31157L41.2906 6.91234L41.2899 7.25415C41.4013 7.57588 41.4354 7.88584 41.4315 8.13596C41.4238 8.62904 41.2794 9.09774 41.0565 9.47629H41.0579C40.5805 10.2882 40.2696 10.7771 39.8108 11.4968L39.7749 11.552L39.8868 11.8255L39.4055 12.3068C39.3812 12.4074 39.3528 12.5144 39.3184 12.6258C39.1187 13.2737 38.7393 14.069 38.0465 14.8908C37.7088 15.3306 37.3257 15.671 37.0058 15.9286L36.9941 15.9404L36.9637 15.9639C36.949 15.9756 36.9347 15.9877 36.9202 15.9991C36.9135 16.0044 36.9073 16.0092 36.9016 16.0136C36.8961 16.0178 36.8904 16.0217 36.8857 16.0253C36.7472 16.1335 36.605 16.2414 36.4873 16.3312L36.4866 16.3319C35.9867 16.7125 35.4629 17.0718 35.0123 17.3877C34.5433 17.7166 34.1289 18.015 33.75 18.3282C33.7445 18.333 33.7222 18.3534 33.6775 18.3952C33.6265 18.443 33.5609 18.5061 33.4807 18.5851C33.3201 18.7433 33.1173 18.9489 32.8834 19.1907C32.4164 19.6735 31.844 20.2812 31.2675 20.906C30.2822 21.9739 29.3851 22.9854 28.9432 23.5273L30.0867 24.1929L30.1136 24.2088L30.1406 24.2261C33.2741 26.1872 35.8994 28.8634 37.7993 32.0353C38.9391 33.9384 40.3971 35.6322 42.1096 37.0417L42.1103 37.0424L45.5332 39.8591L45.5367 39.8625L45.5906 39.9067C46.8576 40.9515 46.6683 42.9738 45.1797 43.7399C44.4526 44.1141 42.9774 44.7978 41.004 45.3191L40.9992 45.3198C40.503 45.4497 39.9736 45.3961 39.5111 45.1672C39.1849 45.5368 38.7269 45.8004 38.1763 45.8681C36.7659 46.0439 35.206 46.0902 33.5532 45.902C33.0169 45.8409 32.5291 45.5784 32.1811 45.1762C31.7298 45.4064 31.1921 45.4825 30.6433 45.3288L30.6384 45.3281V45.3267C29.6022 45.0339 28.5496 44.6374 27.4944 44.1162C27.1593 43.963 26.8293 43.8012 26.5056 43.6301L26.1645 43.445C25.7681 43.2255 25.456 42.8924 25.2592 42.4983C24.8331 42.4846 24.4047 42.3501 24.0286 42.0743L24.0238 42.0709C23.2383 41.4912 22.4934 40.8525 21.7982 40.1574L18.9139 37.273L17.7676 38.0893C17.1379 38.538 16.4724 38.936 15.7775 39.2784L15.4784 39.4213C14.2646 39.9852 12.47 40.7142 11.0141 41.2906C10.2788 41.5817 9.61679 41.8396 9.13866 42.0239C8.89978 42.116 8.70636 42.1896 8.57242 42.2407C8.50559 42.2663 8.4533 42.2866 8.41774 42.3001C8.39995 42.3069 8.38559 42.3118 8.37631 42.3153C8.37179 42.317 8.36834 42.3192 8.36595 42.3202C8.36494 42.3205 8.36378 42.3199 8.36319 42.3202L8.3625 42.3208L8.34869 42.3264C7.18448 42.7579 6.01438 42.3922 5.27719 41.6552C5.27271 41.6507 5.26887 41.6455 5.26476 41.6414C5.25343 41.6303 5.24485 41.6228 5.24405 41.622C4.50802 40.886 4.14103 39.7156 4.57285 38.5505L4.57561 38.5436L4.57768 38.5374L4.57837 38.5367V38.5353L4.57906 38.5333C4.57999 38.5308 4.58144 38.5269 4.5832 38.5222C4.58673 38.5129 4.59235 38.4992 4.59909 38.4815C4.61258 38.446 4.63235 38.3941 4.65778 38.3275C4.70892 38.1935 4.78316 37.9996 4.8753 37.7606C5.05959 37.2823 5.31683 36.6198 5.60796 35.8844C6.18425 34.4286 6.9139 32.6343 7.47792 31.4208C7.85076 30.6176 8.29654 29.8519 8.80996 29.1316L9.53848 28.1076L9.51983 28.0517C9.46002 27.983 9.38559 27.8979 9.2961 27.7989C9.01242 27.4852 8.63351 27.0806 8.24787 26.6733C7.86417 26.2682 7.48226 25.8691 7.19549 25.5713C7.05238 25.4226 6.93333 25.2995 6.85023 25.2136C6.80867 25.1706 6.77563 25.1369 6.75355 25.1141C6.74259 25.1028 6.73428 25.0936 6.72869 25.0879L6.72041 25.0796L6.7211 25.0789C6.03531 24.391 5.40482 23.6549 4.8318 22.8789L4.83111 22.8796C4.54903 22.4992 4.41198 22.0666 4.39883 21.638C4.00818 21.4426 3.67459 21.1332 3.45349 20.7341L3.4528 20.732C3.214 20.2996 2.99059 19.8562 2.78298 19.4034C2.26166 18.3478 1.86423 17.2966 1.57109 16.2608L1.56971 16.2553C1.41622 15.7068 1.49175 15.1692 1.72163 14.7181C1.31989 14.3703 1.05195 13.8781 0.994499 13.3267L0.99519 13.326C0.80939 11.6792 0.856382 10.1251 1.03179 8.71946L1.03248 8.71049C1.10273 8.16664 1.36439 7.71126 1.73199 7.38673C1.50606 6.92971 1.4445 6.39723 1.58352 5.88344H1.58491C2.10611 3.91743 2.78437 2.44734 3.15656 1.72228L3.23183 1.58625C4.04677 0.220187 5.97888 0.0799993 6.99179 1.30796L6.99317 1.30934L9.85474 4.78549C11.2652 6.49801 12.9584 7.95619 14.8611 9.0958C17.8346 10.8768 20.3729 13.2947 22.2947 16.1731L22.6711 16.7552L22.6876 16.7814L22.7035 16.8098L23.3692 17.9519C23.9112 17.5099 24.9233 16.6134 25.9911 15.6283C26.616 15.0517 27.2237 14.4794 27.7064 14.0124C27.9482 13.7786 28.1533 13.5762 28.3113 13.4158C28.3904 13.3355 28.4536 13.2699 28.5012 13.219L28.5682 13.1451C28.8813 12.7663 29.1793 12.3524 29.508 11.8835C29.8227 11.4347 30.1804 10.9131 30.5597 10.4147L30.8525 10.0335C30.8557 10.0292 30.863 10.0198 30.8705 10.0101C30.8724 10.0075 30.8742 10.0043 30.8767 10.0011C30.8797 9.9973 30.8833 9.99384 30.8863 9.99005L30.887 9.98936C30.899 9.974 30.9144 9.95447 30.9326 9.93273C30.9336 9.93155 30.9343 9.92981 30.9354 9.92859C31.2025 9.5936 31.5624 9.18122 32.0361 8.82373C32.8475 8.14672 33.6318 7.77387 34.272 7.57663C34.4853 7.51095 34.6799 7.46537 34.8514 7.43369C35.6292 6.93832 36.5179 6.36831 37.4195 5.83787L37.4188 5.83856C37.7974 5.6156 38.2666 5.47197 38.7598 5.46429C39.0796 5.45931 39.4977 5.51542 39.9123 5.71771H40.096L40.5842 6.20592L40.6422 6.25426L40.6898 6.31157ZM8.04623 20.5L8.04761 20.5014L8.04416 20.4965L8.04623 20.5ZM36.8981 16.0156C36.8999 16.0143 36.9018 16.013 36.9036 16.0115C36.9051 16.0104 36.9063 16.0085 36.9078 16.0074L36.8981 16.0156ZM39.2377 7.69195L39.2225 7.674C39.2165 7.66905 39.21 7.66422 39.2045 7.6588L39.1969 7.64983C39.192 7.64351 39.1871 7.6366 39.181 7.63118L39.179 7.63187L39.1796 7.6298C39.1756 7.6258 39.1698 7.62276 39.1658 7.61875C39.1619 7.61482 39.1594 7.60957 39.1555 7.60563H39.1527L39.1534 7.60356C38.9617 7.39487 38.6191 7.45305 38.4339 7.56213L37.6798 8.0165C36.9327 8.47528 36.2105 8.94204 35.5433 9.36442C35.5249 9.36412 34.4784 9.35225 33.2411 10.4209C32.9473 10.6427 32.6999 10.9208 32.4677 11.2151C32.4633 11.2194 32.4593 11.2251 32.4559 11.2296C32.3543 11.3582 32.2546 11.4899 32.1555 11.6211C31.4554 12.5404 30.8448 13.5303 30.1102 14.4191C29.5395 15.1099 25.2692 19.0765 24.242 19.8053C23.9447 20.0164 23.6073 20.1077 23.229 20.0767C22.6435 20.0295 22.1232 19.6943 21.7899 19.2149L20.9751 17.8159C19.1816 14.9492 16.7336 12.5492 13.8329 10.8118L13.4428 10.5722C11.6313 9.43374 10.0008 8.02968 8.60556 6.40756L8.31002 6.05676L5.44844 2.58062C5.30723 2.40976 5.03714 2.4374 4.93607 2.63448C4.6107 3.26818 3.9896 4.60667 3.51357 6.40617C3.50222 6.44852 3.5127 6.49309 3.5405 6.52702C4.13214 7.24179 5.50229 8.8171 7.13404 10.1496C7.24766 10.2422 7.15435 10.4255 7.01319 10.3864C5.60568 10.003 4.2366 9.38766 3.21249 8.86309C3.12902 8.82097 3.02844 8.8738 3.01638 8.96667C2.85721 10.2421 2.81643 11.6429 2.98462 13.1195C2.98841 13.1555 3.0061 13.1879 3.03365 13.21L3.06472 13.2286C4.23254 13.7367 6.10025 14.4743 8.06073 14.9432C8.20247 14.9775 8.19793 15.1815 8.05452 15.2091C6.52785 15.4964 4.92901 15.5603 3.62958 15.5433C3.5386 15.5423 3.47137 15.6285 3.49561 15.716C3.7564 16.6375 4.11028 17.5753 4.5763 18.5188C4.76891 18.9425 4.978 19.3585 5.20261 19.7652C5.24116 19.8348 5.31637 19.8765 5.39596 19.873C6.46866 19.8204 7.76547 19.7075 9.06891 19.4773C9.29093 19.4386 9.4097 19.7301 9.22221 19.8557C8.3373 20.4473 7.39323 20.9568 6.51532 21.3763C6.39772 21.4328 6.35978 21.5831 6.43729 21.6877C6.95887 22.3945 7.53283 23.0636 8.15603 23.6868C8.19095 23.7228 11.2245 26.8489 11.3076 27.0953C13.0981 25.2617 16.0415 23.2295 19.2916 21.455C14.9388 24.9969 12.5117 27.6115 11.2904 29.0971L10.4389 30.2924C9.99654 30.913 9.61207 31.5721 9.29126 32.2632C8.22284 34.562 6.4656 39.1997 6.44834 39.2452C6.32971 39.5652 6.39937 39.8816 6.57609 40.1132L6.65826 40.2078C6.66374 40.2133 6.66954 40.2187 6.67552 40.2237L6.6914 40.241C6.89767 40.4471 7.19938 40.5568 7.51659 40.4902L7.65401 40.4509C7.70093 40.4331 11.2459 39.0885 13.672 38.0375L14.6353 37.6073C15.3265 37.2865 15.9867 36.9022 16.6068 36.4603L17.9229 35.5225C18.6196 35.026 19.5737 35.1047 20.1789 35.7097L23.2124 38.7432C23.8356 39.3664 24.5047 39.9403 25.2115 40.4619C25.3166 40.5387 25.4658 40.5007 25.5223 40.3832C25.9301 39.5311 26.4236 38.6159 26.9931 37.7537L27.0435 37.677C27.1691 37.4894 27.4613 37.6086 27.4219 37.8303C27.1912 39.1343 27.0793 40.4311 27.0262 41.5033C27.0233 41.5626 27.046 41.6197 27.087 41.6607L27.1333 41.6959C27.5397 41.9211 27.956 42.1307 28.3804 42.3229C29.3239 42.7889 30.2616 43.1426 31.1826 43.4029C31.2701 43.4274 31.3568 43.3607 31.3559 43.2696C31.3384 41.9697 31.4023 40.3709 31.6901 38.8447C31.7171 38.7006 31.9214 38.6959 31.956 38.8385C32.4245 40.7996 33.162 42.6672 33.6706 43.8345C33.6901 43.879 33.7311 43.9091 33.7797 43.9146C35.2563 44.0828 36.6571 44.042 37.9325 43.8828C38.026 43.8711 38.0784 43.77 38.0354 43.686C37.5109 42.6619 36.8955 41.2919 36.5121 39.8853C36.474 39.744 36.6564 39.6515 36.749 39.7645C38.0813 41.3961 39.6566 42.7663 40.3715 43.358C40.3971 43.3791 40.4291 43.3905 40.4613 43.3898L40.493 43.3856C42.2929 42.9102 43.6308 42.2883 44.264 41.9625C44.4613 41.8613 44.4891 41.5912 44.3179 41.4501L44.3151 41.4473L43.7703 40.9978L40.839 38.5857C39.0677 37.1278 37.5432 35.395 36.3236 33.4544L36.084 33.0629C34.3465 30.1621 31.9456 27.7142 29.0799 25.9207L27.6802 25.1065L27.5076 24.9726C27.1217 24.6418 26.8607 24.1796 26.8191 23.6668C26.7925 23.3363 26.8583 23.0366 27.0166 22.7677L27.0905 22.6537C27.8199 21.626 31.7857 17.3574 32.4759 16.7863C33.3649 16.0515 34.3557 15.44 35.2747 14.7402C35.4053 14.6407 35.5364 14.5416 35.6655 14.4405L35.6807 14.4295C35.9755 14.1967 36.2543 13.9487 36.4755 13.6554C37.553 12.4076 37.5313 11.3525 37.5313 11.3525L37.5327 11.3511C37.4179 11.07 37.0054 10.1969 36.1675 9.78703C36.9087 9.77259 37.7451 10.0497 38.1245 10.4209C38.5804 9.70585 38.8752 9.24163 39.3336 8.46189C39.4427 8.27665 39.5009 7.93401 39.2922 7.74236L39.2901 7.74305L39.2908 7.74098C39.2868 7.73697 39.281 7.73393 39.277 7.72993L39.2667 7.71681C39.2667 7.71681 39.2649 7.71681 39.2639 7.71681L39.2646 7.71474C39.2562 7.70633 39.2466 7.69983 39.2377 7.69195Z" fill="white"/>
</svg>
