<svg width="184" height="152" viewBox="0 0 184 152" fill="none" xmlns="http://www.w3.org/2000/svg">
<path d="M182.513 67.1873L167.782 68.6161C159.775 69.3933 151.693 68.7883 143.89 66.8313C133.109 64.1272 121.839 64.0178 111.009 66.5101L105.861 67.8691C103.972 68.2089 101.987 67.7784 100.514 66.5264C99.5644 65.7189 98.9896 64.7229 98.7895 63.5408C98.096 59.4591 97.3933 40.3143 97.6702 37.3822C98.0285 33.6077 98.9105 29.8844 99.4201 26.1216C99.4923 25.5863 99.5667 25.0511 99.6319 24.5159C99.6319 24.4949 99.6389 24.4717 99.6389 24.453C99.7832 23.2267 99.8553 22.005 99.6877 20.8089C99.2921 15.4031 96.7905 13.0016 96.7905 13.0016C96.7905 13.0016 96.7905 12.9969 96.7905 12.9946C95.8714 12.6083 92.8811 11.5355 89.9792 12.5315C91.6687 10.7746 94.2587 9.47605 96.004 9.45743C95.4013 6.73477 95.008 4.97085 94.261 2.09227C94.0842 1.40811 93.4233 0.477285 92.4925 0.516845C92.4925 0.516845 92.4901 0.519172 92.4878 0.521499C92.4878 0.521499 92.4855 0.519172 92.4831 0.516845C92.4645 0.516845 92.4459 0.521499 92.4273 0.521499C92.4087 0.521499 92.3924 0.516845 92.3715 0.516845C92.3715 0.516845 92.3691 0.519172 92.3668 0.521499C92.3668 0.521499 92.3645 0.519172 92.3621 0.516845C92.3226 0.516845 92.2853 0.523826 92.2458 0.526153C92.2202 0.526153 92.1946 0.521499 92.169 0.519172C92.1434 0.521499 92.1178 0.526153 92.0922 0.526153C92.0526 0.526153 92.0154 0.514518 91.9758 0.516845C91.9758 0.516845 91.9712 0.519172 91.9712 0.521499C91.9712 0.521499 91.9689 0.519172 91.9665 0.516845C91.9479 0.516845 91.9293 0.521499 91.9107 0.521499C91.8921 0.521499 91.8735 0.516845 91.8548 0.516845C91.8548 0.516845 91.8502 0.519172 91.8502 0.521499C91.8502 0.521499 91.8479 0.519172 91.8455 0.516845C90.9147 0.477285 90.2538 1.40811 90.077 2.09227C89.1066 5.83652 88.3061 9.62266 87.5474 12.9992C87.5474 12.9992 85.0458 15.3984 84.6502 20.8065C84.4827 22.005 84.5548 23.2267 84.6991 24.4507C84.6991 24.4717 84.7038 24.4949 84.7061 24.5136C84.7689 25.0488 84.8434 25.584 84.9179 26.1192C85.4275 29.8844 86.3094 33.6054 86.6678 37.3799C86.9471 40.312 86.242 59.4568 85.5485 63.5384C85.3484 64.7206 84.7759 65.7166 83.8241 66.5241C82.3534 67.776 80.3661 68.2065 78.4765 67.8668L73.3291 66.5078C62.4966 64.0132 51.2289 64.1249 40.4476 66.8289C32.645 68.786 24.5631 69.3887 16.5556 68.6138L1.8253 67.185C1.09926 67.1152 0.536107 67.8086 0.759505 68.5021C1.47624 70.7314 3.14242 75.2855 6.2188 80.5749C6.29094 80.7006 6.41893 80.782 6.56321 80.796C9.60003 81.0822 16.4463 81.5593 23.3367 80.8635C23.8161 80.8146 24.0255 81.4569 23.6066 81.6942C19.4435 84.0748 14.8313 85.8248 11.2313 86.986C10.9381 87.0814 10.8264 87.4397 11.0149 87.6841C13.6096 91.0188 16.7697 94.3698 20.5931 97.4112C20.7164 97.5113 20.884 97.5369 21.0329 97.4787C24.9284 95.9452 30.9834 93.3179 36.6312 89.8506C37.0408 89.5993 37.5062 90.0856 37.2363 90.4835C34.3554 94.7002 30.788 98.5655 27.7279 101.546C27.5138 101.756 27.558 102.112 27.8186 102.259C30.5669 103.794 33.5665 105.151 36.843 106.261C38.2765 106.799 39.7309 107.278 41.1993 107.702C41.4506 107.774 41.7205 107.697 41.8974 107.504C44.2687 104.888 47.0193 101.612 49.5139 98.0465C49.9397 97.4392 50.8961 97.8417 50.7519 98.5701C50.07 102.003 49.0601 105.381 47.9943 108.397C47.8523 108.802 48.113 109.24 48.5365 109.303C51.3918 109.733 54.2797 109.954 57.1769 109.954C57.1769 109.954 71.6559 110.168 72.4262 110.55C72.3261 102.126 74.4437 90.5603 77.8738 78.8808C75.9889 97.232 76.4264 108.951 77.0407 115.244L77.8389 120C78.2531 122.471 78.8931 124.896 79.7541 127.249C82.628 135.114 89.3742 150.089 89.3742 150.089C89.9094 151.255 91.0055 151.837 92.0992 151.837C92.1248 151.837 92.1504 151.837 92.176 151.834C92.2016 151.834 92.2272 151.837 92.2528 151.837C93.3488 151.837 94.4425 151.255 94.9778 150.089C94.9778 150.089 101.722 135.117 104.598 127.249C105.459 124.896 106.099 122.469 106.513 120L107.393 114.762C107.858 111.988 110.26 109.954 113.073 109.954H127.175C130.072 109.954 132.96 109.733 135.815 109.303C136.239 109.237 136.5 108.802 136.358 108.397C135.294 105.381 134.282 102 133.6 98.5701C133.456 97.8417 134.415 97.4392 134.838 98.0465C137.333 101.614 140.086 104.888 142.455 107.504C142.629 107.697 142.901 107.774 143.153 107.702C144.621 107.28 146.075 106.801 147.509 106.261C150.785 105.151 153.787 103.794 156.533 102.259C156.794 102.112 156.838 101.756 156.624 101.546C153.562 98.5655 149.994 94.7002 147.116 90.4835C146.843 90.0856 147.309 89.5993 147.721 89.8506C153.369 93.3202 159.424 95.9475 163.319 97.4787C163.468 97.5369 163.633 97.5113 163.759 97.4112C167.582 94.3698 170.742 91.0188 173.337 87.6841C173.528 87.4397 173.416 87.0814 173.121 86.986C169.521 85.8248 164.906 84.0725 160.745 81.6942C160.326 81.4545 160.536 80.8146 161.015 80.8635C167.906 81.5593 174.752 81.0822 177.789 80.796C177.933 80.782 178.061 80.6982 178.133 80.5749C181.212 75.2855 182.878 70.7314 183.592 68.5021C183.816 67.8086 183.253 67.1152 182.527 67.185L182.513 67.1873Z" fill="white"/>
</svg>
